<svg xmlns="http://www.w3.org/2000/svg" width="20" height="20.031" viewBox="0 0 20 20.031">
  <metadata><?xpacket begin="﻿" id="W5M0MpCehiHzreSzNTczkc9d"?>
<x:xmpmeta xmlns:x="adobe:ns:meta/" x:xmptk="Adobe XMP Core 5.6-c138 79.159824, 2016/09/14-01:09:01        ">
   <rdf:RDF xmlns:rdf="http://www.w3.org/1999/02/22-rdf-syntax-ns#">
      <rdf:Description rdf:about=""/>
   </rdf:RDF>
</x:xmpmeta>
                                                                                                    
                                                                                                    
                                                                                                    
                                                                                                    
                                                                                                    
                                                                                                    
                                                                                                    
                                                                                                    
                                                                                                    
                                                                                                    
                                                                                                    
                                                                                                    
                                                                                                    
                                                                                                    
                                                                                                    
                                                                                                    
                                                                                                    
                                                                                                    
                                                                                                    
                                                                                                    
                           
<?xpacket end="w"?></metadata>
<defs>
    <style>
      .cls-1 {
        fill: #cbccd5;
        fill-rule: evenodd;
      }
    </style>
  </defs>
  <path id="air" class="cls-1" d="M800.965,778.161l-18.409,9.968c-0.757.41-.726,1.011,0.068,1.336l2.351,0.96a2.935,2.935,0,0,0,2.669-.4l10.209-8.311c0.671-.547.743-0.466,0.16,0.179l-8.071,8.921a1.021,1.021,0,0,0,.385,1.75l0.275,0.111c0.8,0.318,2.1.851,2.887,1.185l2.608,1.1c0.791,0.332,1.439.608,1.439,0.613a0.04,0.04,0,0,0,.009.021s0.191-.693.415-1.544l3.974-15.083C802.158,778.113,801.722,777.752,800.965,778.161Zm-10.938,15.418-1.8-.763c-0.791-.334-1.17.058-0.842,0.874,0,0,1.675,4.165,1.628,4.312s1.606-2.472,1.606-2.472A1.3,1.3,0,0,0,790.027,793.579Z" transform="translate(-782 -777.969)"/>
</svg>
