<svg xmlns="http://www.w3.org/2000/svg" width="15.09" height="21" viewBox="0 0 15.09 21">
  <metadata><?xpacket begin="﻿" id="W5M0MpCehiHzreSzNTczkc9d"?>
<x:xmpmeta xmlns:x="adobe:ns:meta/" x:xmptk="Adobe XMP Core 5.6-c138 79.159824, 2016/09/14-01:09:01        ">
   <rdf:RDF xmlns:rdf="http://www.w3.org/1999/02/22-rdf-syntax-ns#">
      <rdf:Description rdf:about=""/>
   </rdf:RDF>
</x:xmpmeta>
                                                                                                    
                                                                                                    
                                                                                                    
                                                                                                    
                                                                                                    
                                                                                                    
                                                                                                    
                                                                                                    
                                                                                                    
                                                                                                    
                                                                                                    
                                                                                                    
                                                                                                    
                                                                                                    
                                                                                                    
                                                                                                    
                                                                                                    
                                                                                                    
                                                                                                    
                                                                                                    
                           
<?xpacket end="w"?></metadata>
<defs>
    <style>
      .cls-1 {
        fill: #575ea6;
        fill-rule: evenodd;
      }
    </style>
  </defs>
  <path id="bc" class="cls-1" d="M1054.41,47.017a3.787,3.787,0,0,0-2.2-1.3,2.99,2.99,0,0,0,1.64-3.256,3.29,3.29,0,0,0-.45-1.445,2.977,2.977,0,0,0-1.04-.984,5.773,5.773,0,0,0-1.42-.568,11.183,11.183,0,0,0-1.76-.284V36h-1.94v3.092q-0.495,0-1.53.025V36h-1.93V39.18c-0.28.008-.69,0.013-1.22,0.013l-2.67-.013v2.07h1.4a1,1,0,0,1,1.12.858V45.73a1.288,1.288,0,0,1,.2.013h-0.2v5.073a0.674,0.674,0,0,1-.73.644h-1.4l-0.39,2.31h2.52q0.24,0,.69.006c0.3,0,.52.006,0.68,0.006V57h1.93V53.82q0.525,0.013,1.53.013V57h1.94V53.782a14.911,14.911,0,0,0,1.83-.189,7.286,7.286,0,0,0,1.52-.436,3.988,3.988,0,0,0,1.22-.738,3.379,3.379,0,0,0,.81-1.123,4.667,4.667,0,0,0,.41-1.578A3.778,3.778,0,0,0,1054.41,47.017Zm-8.66-5.629,0.49-.006,0.68-.013a7.22,7.22,0,0,1,.73.032,6.958,6.958,0,0,1,.78.1,4.541,4.541,0,0,1,.69.208,1.865,1.865,0,0,1,.6.353,1.686,1.686,0,0,1,.38.53,1.594,1.594,0,0,1,.16.738,1.882,1.882,0,0,1-.11.644,1.271,1.271,0,0,1-.34.486,3.386,3.386,0,0,1-.47.341,2.1,2.1,0,0,1-.61.233c-0.24.059-.46,0.105-0.64,0.139a5.476,5.476,0,0,1-.7.07c-0.27.012-.48,0.021-0.62,0.025s-0.34,0-.59,0l-0.43-.006V41.388h0Zm5.28,8.595a1.678,1.678,0,0,1-.8.883,4.7,4.7,0,0,1-.6.265,4.483,4.483,0,0,1-.7.177c-0.27.05-.51,0.086-0.71,0.107s-0.45.038-.74,0.05-0.5.019-.66,0.019-0.36,0-.61-0.006l-0.46-.006V47.207c0.07,0,.26,0,0.6-0.013s0.6-.013.81-0.013,0.49,0.013.86,0.038a7.291,7.291,0,0,1,.93.113,6.324,6.324,0,0,1,.83.233,2.535,2.535,0,0,1,.72.385,1.863,1.863,0,0,1,.46.581,1.641,1.641,0,0,1,.19.808A1.669,1.669,0,0,1,1051.03,49.983Z" transform="translate(-1039.91 -36)"/>
</svg>
