<svg xmlns="http://www.w3.org/2000/svg" width="15.1" height="21" viewBox="0 0 15.09 21"><defs><style>.cls-1 { fill: #575ea6; fill-rule: evenodd; }</style></defs><path id="bc" class="cls-1" d="M14.5 11a3.8 3.8 0 0 0-2.2-1.3A3 3 0 0 0 14 6.5a3.3 3.3 0 0 0-.5-1.5 3 3 0 0 0-1-1 5.8 5.8 0 0 0-1.5-.5 11.2 11.2 0 0 0-1.7-.3V0h-2v3H5.8V0h-2v3.2H0v2h1.4a1 1 0 0 1 1 1v3.5a1.3 1.3 0 0 1 .3 0h-.2v5a.7.7 0 0 1-.7.8H.4L0 17.8H4V21h1.8v-3.2h1.5V21h2v-3.2a15 15 0 0 0 1.8-.2 7.3 7.3 0 0 0 1.6-.4 4 4 0 0 0 1.2-.8 3.4 3.4 0 0 0 1-1 4.7 4.7 0 0 0 .3-1.7 3.8 3.8 0 0 0-.5-2.7zM5.8 5.4H7a7.2 7.2 0 0 1 .7 0 7 7 0 0 1 .8 0 4.5 4.5 0 0 1 .7.3 2 2 0 0 1 .6.4 1.7 1.7 0 0 1 .4.6 1.6 1.6 0 0 1 .2.7 2 2 0 0 1-.2.7 1.3 1.3 0 0 1-.3.5 3.4 3.4 0 0 1-.6.3 2 2 0 0 1-.6.2c-.2 0-.4 0-.6.2a5.5 5.5 0 0 1-.7 0H5.7V5.5zM11 14a1.7 1.7 0 0 1-.7 1 4.7 4.7 0 0 1-.6 0 4.5 4.5 0 0 1-.7.3h-.7l-.7.2H5.7v-4.3H8a7.3 7.3 0 0 1 1 0 6.3 6.3 0 0 1 1 .4 2.5 2.5 0 0 1 .6.4 2 2 0 0 1 .5.5 1.6 1.6 0 0 1 .2.8 1.7 1.7 0 0 1 0 .7z"/></svg>