<svg xmlns="http://www.w3.org/2000/svg" width="33.5" height="52" viewBox="0 0 33.531 52"><defs><style>.cls-1 { fill: #0e1359; fill-rule: evenodd; }</style></defs><path id="BM" class="cls-1" d="M26.7 28a9 9 0 0 0 2.4-6v-1.2a5.5 5.5 0 0 0 4.5-5.4 4.4 4.4 0 0 0-.4-1.8 3.3 3.3 0 0 0-2.8-2 3.5 3.5 0 0 0-1 .2 12.3 12.3 0 0 0-24.8 0 3.5 3.5 0 0 0-1-.2 3.3 3.3 0 0 0-3 2 4.4 4.4 0 0 0-.4 1.8 5.5 5.5 0 0 0 4.4 5.4v1a9 9 0 0 0 2.4 6A15.7 15.7 0 0 0 1.2 40v9a1 1 0 0 0 1 1A64.4 64.4 0 0 0 17 52a61.4 61.4 0 0 0 14.3-2 1 1 0 0 0 1-1v-9a15.6 15.6 0 0 0-4.5-11l-1-1zm-6 11l2 2.8-5 8v-6.7l6-13 .4-.2-.5 7.6h-2a1 1 0 0 0-.8.6 1 1 0 0 0 0 1zm-8-1a1 1 0 0 0-.8-.6h-2l-.6-7.6.5.2 5.7 13v7l-5-8.2 2-2.7a1 1 0 0 0 0-1zm4 2.3l-1.7-4 1.8-3.2 1.7 3.4zm3-6.3l-1.3-2.2a9.3 9.3 0 0 0 1.4-.4l1-.4zm-5.8 0l-1.4-3 1 .4a9.3 9.3 0 0 0 1.5.4zm16-20.3a1.2 1.2 0 0 1 1.2.8 2.3 2.3 0 0 1 .2 1 3.4 3.4 0 0 1-2.3 3.2v-4.5a1.2 1.2 0 0 1 1-.5zm-3-1.3v.6a8.5 8.5 0 0 1-2.7-7.5 10.3 10.3 0 0 1 2.7 7zm-17.8-7a8.8 8.8 0 0 1 0 1.3A8.5 8.5 0 0 1 6.6 13v-.6a10.3 10.3 0 0 1 2.7-7zm-7 10a2.4 2.4 0 0 1 0-1 1.2 1.2 0 0 1 1.2-.7 1.2 1.2 0 0 1 1 .5v4.5A3.4 3.4 0 0 1 2 15.4zm4.3.2A10.6 10.6 0 0 0 11 4a10.2 10.2 0 0 1 11.5 0A10.6 10.6 0 0 0 27 15.5V22a6.8 6.8 0 0 1-4.5 6.2L19 29.4a7 7 0 0 1-4.6 0L11 28.2A6.8 6.8 0 0 1 6.5 22v-6.4zM3.3 40a13.7 13.7 0 0 1 4-9.7l.7 8.3a1 1 0 0 0 1 1h.8L8.6 41a1 1 0 0 0 0 1.2l3.8 7.7-9-2v-8zm27 8L20 50l5-7.8a1 1 0 0 0 0-1l-1.3-1.7h.7a1 1 0 0 0 1-1l.8-8.2a13.5 13.5 0 0 1 4 9.7v8z"/></svg>