<svg xmlns="http://www.w3.org/2000/svg" width="33.531" height="52" viewBox="0 0 33.531 52">
  <metadata><?xpacket begin="﻿" id="W5M0MpCehiHzreSzNTczkc9d"?>
<x:xmpmeta xmlns:x="adobe:ns:meta/" x:xmptk="Adobe XMP Core 5.6-c138 79.159824, 2016/09/14-01:09:01        ">
   <rdf:RDF xmlns:rdf="http://www.w3.org/1999/02/22-rdf-syntax-ns#">
      <rdf:Description rdf:about=""/>
   </rdf:RDF>
</x:xmpmeta>
                                                                                                    
                                                                                                    
                                                                                                    
                                                                                                    
                                                                                                    
                                                                                                    
                                                                                                    
                                                                                                    
                                                                                                    
                                                                                                    
                                                                                                    
                                                                                                    
                                                                                                    
                                                                                                    
                                                                                                    
                                                                                                    
                                                                                                    
                                                                                                    
                                                                                                    
                                                                                                    
                           
<?xpacket end="w"?></metadata>
<defs>
    <style>
      .cls-1 {
        fill: #fff;
        fill-rule: evenodd;
      }
    </style>
  </defs>
  <path id="BM" class="cls-1" d="M929.012,3328.43a8.9,8.9,0,0,0,2.4-6.07v-1.01a5.518,5.518,0,0,0,4.449-5.42,4.434,4.434,0,0,0-.373-1.79,3.336,3.336,0,0,0-2.922-2.01,3.5,3.5,0,0,0-1.168.16,12.314,12.314,0,0,0-24.605,0,3.5,3.5,0,0,0-1.168-.16,3.336,3.336,0,0,0-2.922,2.01,4.434,4.434,0,0,0-.373,1.79,5.518,5.518,0,0,0,4.449,5.42v1.01a8.9,8.9,0,0,0,2.4,6.07,15.737,15.737,0,0,0-5.663,12.07v8.95a1.047,1.047,0,0,0,1.044,1.05,64.369,64.369,0,0,0,14.682,2,61.4,61.4,0,0,0,14.391-2,1.047,1.047,0,0,0,1.044-1.05v-8.95a15.6,15.6,0,0,0-4.563-11.07C929.763,3329.08,929.394,3328.75,929.012,3328.43Zm-5.861,11.15,1.988,2.73-5,8.09v-6.82l5.823-13.03c0.163-.07.324-0.14,0.482-0.22l-0.628,7.58h-1.823a1.034,1.034,0,0,0-.93.58A1.047,1.047,0,0,0,923.151,3339.58Zm-8.023-1.09a1.034,1.034,0,0,0-.93-0.58h-1.823l-0.628-7.58c0.158,0.08.319,0.15,0.482,0.22l5.823,13.03v6.82l-5-8.09,1.988-2.73A1.047,1.047,0,0,0,915.128,3338.49Zm3.967,2.3-1.75-3.91,1.75-3.27,1.751,3.27Zm2.829-6.33-1.164-2.17a9.255,9.255,0,0,0,1.361-.37l1.114-.39Zm-5.657,0-1.311-2.93,1.114,0.39a9.255,9.255,0,0,0,1.361.37Zm16.212-20.23a1.222,1.222,0,0,1,1.1.75,2.345,2.345,0,0,1,.2.95,3.436,3.436,0,0,1-2.361,3.26v-4.47A1.247,1.247,0,0,1,932.479,3314.23Zm-3.154-1.36v0.6a8.484,8.484,0,0,1-2.648-7.49A10.266,10.266,0,0,1,929.325,3312.87Zm-17.811-6.89a8.768,8.768,0,0,1,.091,1.24,8.516,8.516,0,0,1-2.739,6.25v-0.6A10.266,10.266,0,0,1,911.514,3305.98Zm-7.1,9.95a2.361,2.361,0,0,1,.2-0.95,1.224,1.224,0,0,1,1.1-.75,1.248,1.248,0,0,1,1.067.49v4.47A3.436,3.436,0,0,1,904.417,3315.93Zm4.449,0.18a10.6,10.6,0,0,0,4.445-11.71,10.193,10.193,0,0,1,11.568,0,10.6,10.6,0,0,0,4.446,11.71v6.25a6.784,6.784,0,0,1-4.488,6.38h0l-3.412,1.21a7.025,7.025,0,0,1-4.659,0l-3.412-1.21a6.784,6.784,0,0,1-4.488-6.38v-6.25h0ZM905.6,3340.5a13.659,13.659,0,0,1,4.088-9.72l0.685,8.27a1.047,1.047,0,0,0,1.04.96h0.727l-1.149,1.58a1.045,1.045,0,0,0-.093,1.08l3.831,7.73-9.129-2v-7.9Zm26.986,7.9-10.128,2,4.831-7.73a1.045,1.045,0,0,0-.093-1.08l-1.149-1.58h0.727a1.047,1.047,0,0,0,1.04-.96l0.684-8.27a1.81,1.81,0,0,0,.137.13,13.512,13.512,0,0,1,3.951,9.59v7.9h0Z" transform="translate(-902.344 -3300.5)"/>
</svg>
