<svg xmlns="http://www.w3.org/2000/svg" width="45" height="44.875" viewBox="0 0 45 44.875">
  <metadata><?xpacket begin="﻿" id="W5M0MpCehiHzreSzNTczkc9d"?>
<x:xmpmeta xmlns:x="adobe:ns:meta/" x:xmptk="Adobe XMP Core 5.6-c138 79.159824, 2016/09/14-01:09:01        ">
   <rdf:RDF xmlns:rdf="http://www.w3.org/1999/02/22-rdf-syntax-ns#">
      <rdf:Description rdf:about=""/>
   </rdf:RDF>
</x:xmpmeta>
                                                                                                    
                                                                                                    
                                                                                                    
                                                                                                    
                                                                                                    
                                                                                                    
                                                                                                    
                                                                                                    
                                                                                                    
                                                                                                    
                                                                                                    
                                                                                                    
                                                                                                    
                                                                                                    
                                                                                                    
                                                                                                    
                                                                                                    
                                                                                                    
                                                                                                    
                                                                                                    
                           
<?xpacket end="w"?></metadata>
<defs>
    <style>
      .cls-1 {
        fill: #2677f9;
        fill-rule: evenodd;
      }
    </style>
  </defs>
  <path class="cls-1" d="M558,734.659c-0.073-5.708-11.333-8.659-22.5-8.659s-22.427,2.951-22.5,8.659v27.519c0,5.727,11.25,8.687,22.408,8.687s22.408-2.96,22.592-8.778V734.659Zm-22.5-5.028c11.581,0,18.762,3.254,18.762,4.981S547.081,739.6,535.5,739.6c-11.682,0-18.762-3.254-18.762-4.983S523.919,729.631,535.5,729.631Zm18.689,32.446c0,1.719-7.154,4.964-18.689,4.964-11.636,0-18.689-3.245-18.689-4.964v-8.566c4.243,2.39,11.434,3.6,18.6,3.6,7.237,0,14.51-1.241,18.781-3.686v8.649ZM535.5,753.391c-11.636,0-18.689-3.245-18.689-4.963v-8.622c4.252,2.4,11.489,3.631,18.689,3.631s14.428-1.269,18.689-3.668v8.668C554.189,750.146,547.035,753.391,535.5,753.391Z" transform="translate(-513 -726)"/>
</svg>
