<svg xmlns="http://www.w3.org/2000/svg" width="45" height="44.9" viewBox="0 0 45 44.875"><defs><style>.cls-1 { fill: #2677f9; fill-rule: evenodd; }</style></defs><path class="cls-1" d="M45 8.7C45 3 33.7 0 22.5 0S0 3 0 8.7v27.5C0 42 11.3 45 22.4 45s22.4-3 22.6-9V8.8zm-22.5-5c11.6 0 18.8 3.2 18.8 5s-7.2 5-18.8 5c-11.7 0-18.8-3.4-18.8-5s7.2-5 18.8-5zM41.2 36c0 1.8-7.2 5-18.7 5C11 41 3.8 37.8 3.8 36v-8.5C8 30 15.2 31 22.4 31c7.2 0 14.5-1 18.8-3.6V36zm-18.7-8.6c-11.6 0-18.7-3.3-18.7-5v-8.6c4.3 2.4 11.5 3.6 18.7 3.6s14.4-1.2 18.7-3.6v8.6c0 1.7-7.2 5-18.7 5z"/></svg>