<svg xmlns="http://www.w3.org/2000/svg" width="47" height="46.81" viewBox="0 0 47 46.81">
  <metadata><?xpacket begin="﻿" id="W5M0MpCehiHzreSzNTczkc9d"?>
<x:xmpmeta xmlns:x="adobe:ns:meta/" x:xmptk="Adobe XMP Core 5.6-c138 79.159824, 2016/09/14-01:09:01        ">
   <rdf:RDF xmlns:rdf="http://www.w3.org/1999/02/22-rdf-syntax-ns#">
      <rdf:Description rdf:about=""/>
   </rdf:RDF>
</x:xmpmeta>
                                                                                                    
                                                                                                    
                                                                                                    
                                                                                                    
                                                                                                    
                                                                                                    
                                                                                                    
                                                                                                    
                                                                                                    
                                                                                                    
                                                                                                    
                                                                                                    
                                                                                                    
                                                                                                    
                                                                                                    
                                                                                                    
                                                                                                    
                                                                                                    
                                                                                                    
                                                                                                    
                           
<?xpacket end="w"?></metadata>
<defs>
    <style>
      .cls-1 {
        fill: #fff;
        fill-rule: evenodd;
      }
    </style>
  </defs>
  <path id="db" class="cls-1" d="M1270,2649.04c-0.08-5.96-11.84-9.04-23.5-9.04s-23.42,3.08-23.5,9.04v28.72c0,5.97,11.75,9.06,23.4,9.06s23.41-3.09,23.6-9.16v-28.62Zm-23.5-5.25c12.1,0,19.6,3.4,19.6,5.2s-7.5,5.2-19.6,5.2c-12.2,0-19.6-3.4-19.6-5.2S1234.4,2643.79,1246.5,2643.79Zm19.52,33.86c0,1.8-7.47,5.18-19.52,5.18-12.15,0-19.52-3.38-19.52-5.18v-8.94c4.43,2.5,11.94,3.76,19.42,3.76,7.56,0,15.16-1.29,19.62-3.84v9.02Zm-19.52-9.06c-12.15,0-19.52-3.39-19.52-5.18v-9c4.44,2.5,12,3.79,19.52,3.79s15.07-1.33,19.52-3.83v9.05C1266.02,2665.2,1258.55,2668.59,1246.5,2668.59Z" transform="translate(-1223 -2640)"/>
</svg>
