<svg xmlns="http://www.w3.org/2000/svg" width="47" height="46.8" viewBox="0 0 47 46.81"><defs><style>.cls-1 { fill: #fff; fill-rule: evenodd; }</style></defs><path id="db" class="cls-1" d="M47 9c0-6-11.8-9-23.5-9S0 3 0 9v28.8c0 6 11.8 9 23.4 9s23.4-3 23.6-9V9zM23.5 3.8C35.5 3.8 43 7.2 43 9s-7.4 5.2-19.5 5.2C11.3 14.2 4 10.8 4 9s7.4-5.2 19.5-5.2zM43 37.6c0 1.8-7.5 5.2-19.5 5.2C11.3 42.8 4 39.4 4 37.6v-9c4.4 2.6 12 4 19.4 4 7.6 0 15.2-1.4 19.6-4v9zm-19.5-9C11.3 28.6 4 25.2 4 23.4v-9c4.4 2.5 12 3.8 19.5 3.8s15-1.3 19.5-3.8v9c0 1.8-7.5 5.2-19.5 5.2z"/></svg>