<svg xmlns="http://www.w3.org/2000/svg" width="20" height="18.938" viewBox="0 0 20 18.938">
  <metadata><?xpacket begin="﻿" id="W5M0MpCehiHzreSzNTczkc9d"?>
<x:xmpmeta xmlns:x="adobe:ns:meta/" x:xmptk="Adobe XMP Core 5.6-c138 79.159824, 2016/09/14-01:09:01        ">
   <rdf:RDF xmlns:rdf="http://www.w3.org/1999/02/22-rdf-syntax-ns#">
      <rdf:Description rdf:about=""/>
   </rdf:RDF>
</x:xmpmeta>
                                                                                                    
                                                                                                    
                                                                                                    
                                                                                                    
                                                                                                    
                                                                                                    
                                                                                                    
                                                                                                    
                                                                                                    
                                                                                                    
                                                                                                    
                                                                                                    
                                                                                                    
                                                                                                    
                                                                                                    
                                                                                                    
                                                                                                    
                                                                                                    
                                                                                                    
                                                                                                    
                           
<?xpacket end="w"?></metadata>
<defs>
    <style>
      .cls-1 {
        fill: #575ea6;
        fill-rule: evenodd;
      }
    </style>
  </defs>
  <path id="Github" class="cls-1" d="M1105.66,43.079a9.8,9.8,0,0,0-3.64-3.533,10.331,10.331,0,0,0-10.04,0,9.8,9.8,0,0,0-3.64,3.533,9.323,9.323,0,0,0-1.34,4.873,9.2,9.2,0,0,0,1.91,5.707,9.753,9.753,0,0,0,4.93,3.508,0.6,0.6,0,0,0,.52-0.088,0.5,0.5,0,0,0,.17-0.379c0-.025-0.01-0.253-0.01-0.682s-0.01-.806-0.01-1.125l-0.3.05a3.862,3.862,0,0,1-.72.044,5.827,5.827,0,0,1-.91-0.088,2.074,2.074,0,0,1-.87-0.379,1.578,1.578,0,0,1-.57-0.777l-0.13-.291a3.122,3.122,0,0,0-.41-0.644,1.6,1.6,0,0,0-.57-0.48l-0.09-.063a0.941,0.941,0,0,1-.17-0.152,0.575,0.575,0,0,1-.11-0.177,0.1,0.1,0,0,1,.06-0.145,0.884,0.884,0,0,1,.38-0.057l0.26,0.038a1.878,1.878,0,0,1,.64.3,1.975,1.975,0,0,1,.63.657,2.2,2.2,0,0,0,.73.791,1.54,1.54,0,0,0,.85.271,3.731,3.731,0,0,0,.74-0.063,2.6,2.6,0,0,0,.59-0.189,2.026,2.026,0,0,1,.64-1.3,9.234,9.234,0,0,1-1.34-.227,5.462,5.462,0,0,1-1.22-.493,3.53,3.53,0,0,1-1.05-.847,3.837,3.837,0,0,1-.68-1.327,6.076,6.076,0,0,1-.27-1.9,3.614,3.614,0,0,1,1.03-2.6,3.32,3.32,0,0,1,.09-2.578,1.882,1.882,0,0,1,1.12.17,8.306,8.306,0,0,1,1.09.486c0.23,0.135.41,0.248,0.55,0.341a9.683,9.683,0,0,1,5,0l0.5-.3a6.714,6.714,0,0,1,1.19-.556,1.767,1.767,0,0,1,1.06-.139,3.282,3.282,0,0,1,.1,2.579,3.611,3.611,0,0,1,1.03,2.6,6.134,6.134,0,0,1-.27,1.9,3.439,3.439,0,0,1-1.74,2.168,5.462,5.462,0,0,1-1.22.493,9.234,9.234,0,0,1-1.34.227,2.223,2.223,0,0,1,.68,1.8V56.7a0.488,0.488,0,0,0,.16.379,0.575,0.575,0,0,0,.51.088,9.75,9.75,0,0,0,4.93-3.508,9.2,9.2,0,0,0,1.91-5.707A9.32,9.32,0,0,0,1105.66,43.079Z" transform="translate(-1087 -38.25)"/>
</svg>
