<svg xmlns="http://www.w3.org/2000/svg" width="20" height="18.9" viewBox="0 0 20 18.938"><defs><style>.cls-1 { fill: #575ea6; fill-rule: evenodd; }</style></defs><path id="Github" class="cls-1" d="M18.7 4.8A9.8 9.8 0 0 0 15 1.3a10.3 10.3 0 0 0-10 0 9.8 9.8 0 0 0-3.7 3.5 9.3 9.3 0 0 0-1.3 5 9.2 9.2 0 0 0 2 5.6A9.8 9.8 0 0 0 6.7 19a.6.6 0 0 0 .6-.2.5.5 0 0 0 0-.4v-.6-1.2h-.2a4 4 0 0 1-.7 0 5.8 5.8 0 0 1-1 0 2 2 0 0 1-.8-.3 1.6 1.6 0 0 1-.6-.8v-.3a3 3 0 0 0-.4-.6A1.6 1.6 0 0 0 3 14a1 1 0 0 1-.2 0 .6.6 0 0 1 0-.3v-.2a1 1 0 0 1 .3 0h.4a2 2 0 0 1 .6.3 2 2 0 0 1 .6.7 2.2 2.2 0 0 0 .8.8 1.5 1.5 0 0 0 .8.2 3.7 3.7 0 0 0 .8 0 2.6 2.6 0 0 0 .5-.2 2 2 0 0 1 .7-1.3 9.2 9.2 0 0 1-1.4-.2 5.5 5.5 0 0 1-1.2-.5 3.5 3.5 0 0 1-1-1 3.8 3.8 0 0 1-.7-1.2 6 6 0 0 1-.4-1.8 3.6 3.6 0 0 1 1-2.6 3.3 3.3 0 0 1 0-2.6 2 2 0 0 1 1.3.2 8.3 8.3 0 0 1 1 .5c.2 0 .4.2.5.3a9.7 9.7 0 0 1 5 0l.5-.3a6.7 6.7 0 0 1 1.2-.5 1.8 1.8 0 0 1 1-.2 3.3 3.3 0 0 1 .2 2.6 3.6 3.6 0 0 1 1 2.6 6 6 0 0 1-.3 2 3.4 3.4 0 0 1-1.6 2 5.5 5.5 0 0 1-1.2.6 9.2 9.2 0 0 1-1.4.2 2.2 2.2 0 0 1 .7 1.8v2.7a.5.5 0 0 0 .2.3.6.6 0 0 0 .5 0 9.8 9.8 0 0 0 5-3.4A9.2 9.2 0 0 0 20 9.7a9.3 9.3 0 0 0-1.3-5z"/></svg>