<svg xmlns="http://www.w3.org/2000/svg" width="24" height="26" viewBox="0 0 24 26">
  <metadata><?xpacket begin="﻿" id="W5M0MpCehiHzreSzNTczkc9d"?>
<x:xmpmeta xmlns:x="adobe:ns:meta/" x:xmptk="Adobe XMP Core 5.6-c138 79.159824, 2016/09/14-01:09:01        ">
   <rdf:RDF xmlns:rdf="http://www.w3.org/1999/02/22-rdf-syntax-ns#">
      <rdf:Description rdf:about=""/>
   </rdf:RDF>
</x:xmpmeta>
                                                                                                    
                                                                                                    
                                                                                                    
                                                                                                    
                                                                                                    
                                                                                                    
                                                                                                    
                                                                                                    
                                                                                                    
                                                                                                    
                                                                                                    
                                                                                                    
                                                                                                    
                                                                                                    
                                                                                                    
                                                                                                    
                                                                                                    
                                                                                                    
                                                                                                    
                                                                                                    
                           
<?xpacket end="w"?></metadata>
<defs>
    <style>
      .cls-1 {
        fill: #575ea6;
        fill-rule: evenodd;
      }
    </style>
  </defs>
  <path id="golos" class="cls-1" d="M1178,47.222s7.37,2.826,12.15-.339c4.49-2.968,3.78-9.72,3.78-9.72a8.816,8.816,0,0,1,2.52,6.443c0,3.237-2.52,8.816-2.52,8.816s4.48-1.911,6.77-.339c2.45,1.688.68,6.33,0.68,6.33,0,0.016-.42-3.327-2.72-3.389-3.45-.093-7.84,5.466-14.13,6.78-5.6,1.17-6.53-3.165-6.53-3.165s3.19,1.626,5.27,0c2.38-1.854,2.75-6.1,2.75-6.1a18.2,18.2,0,0,1-4.81-1.7A9.166,9.166,0,0,1,1178,47.222Zm13.76-7.686s0.81,3.842-1.49,5.651c-3.37,2.64-9.52,1.7-9.52,1.7l2.64-1.922s-4.09-5.531,1.14-8.364C1188.85,34.259,1191.76,39.536,1191.76,39.536Z" transform="translate(-1178 -36)"/>
</svg>
