<svg xmlns="http://www.w3.org/2000/svg" width="20.687" height="20.219" viewBox="0 0 20.687 20.219">
  <metadata><?xpacket begin="﻿" id="W5M0MpCehiHzreSzNTczkc9d"?>
<x:xmpmeta xmlns:x="adobe:ns:meta/" x:xmptk="Adobe XMP Core 5.6-c138 79.159824, 2016/09/14-01:09:01        ">
   <rdf:RDF xmlns:rdf="http://www.w3.org/1999/02/22-rdf-syntax-ns#">
      <rdf:Description rdf:about=""/>
   </rdf:RDF>
</x:xmpmeta>
                                                                                                    
                                                                                                    
                                                                                                    
                                                                                                    
                                                                                                    
                                                                                                    
                                                                                                    
                                                                                                    
                                                                                                    
                                                                                                    
                                                                                                    
                                                                                                    
                                                                                                    
                                                                                                    
                                                                                                    
                                                                                                    
                                                                                                    
                                                                                                    
                                                                                                    
                                                                                                    
                           
<?xpacket end="w"?></metadata>
<defs>
    <style>
      .cls-1 {
        fill: #575ea6;
        fill-rule: evenodd;
      }
    </style>
  </defs>
  <path id="inst" class="cls-1" d="M944.473,36h-9.5a5.532,5.532,0,0,0-5.585,5.464v9.294a5.531,5.531,0,0,0,5.585,5.464h9.5a5.531,5.531,0,0,0,5.585-5.464V41.464A5.532,5.532,0,0,0,944.473,36Zm3.915,14.758a3.878,3.878,0,0,1-3.915,3.83h-9.5a3.878,3.878,0,0,1-3.915-3.83V41.464a3.878,3.878,0,0,1,3.915-3.83h9.5a3.878,3.878,0,0,1,3.915,3.83v9.294Zm-4.039-5.352a4.47,4.47,0,0,0-1.307-2.541,4.643,4.643,0,0,0-2.6-1.279,4.731,4.731,0,0,0-1.36,0,4.624,4.624,0,0,0-3.043,1.784,4.436,4.436,0,0,0-.862,3.367A4.489,4.489,0,0,0,937,49.713a4.666,4.666,0,0,0,2.751.893,4.791,4.791,0,0,0,.69-0.05,4.624,4.624,0,0,0,3.043-1.784A4.432,4.432,0,0,0,944.349,45.406ZM940.2,48.94a2.993,2.993,0,0,1-2.2-.54,2.872,2.872,0,0,1-1.167-1.9,2.835,2.835,0,0,1,.552-2.154,2.956,2.956,0,0,1,1.946-1.141,3.029,3.029,0,0,1,.87,0A2.892,2.892,0,0,1,940.2,48.94Zm5.34-8.519a0.848,0.848,0,0,0-1.181,0,0.8,0.8,0,0,0,0,1.155,0.848,0.848,0,0,0,1.181,0A0.806,0.806,0,0,0,945.539,40.422Z" transform="translate(-929.375 -36)"/>
</svg>
