<svg xmlns="http://www.w3.org/2000/svg" width="20.7" height="20.2" viewBox="0 0 20.687 20.219"><defs><style>.cls-1 { fill: #575ea6; fill-rule: evenodd; }</style></defs><path id="inst" class="cls-1" d="M15 0H5.7A5.5 5.5 0 0 0 0 5.5v9.3a5.5 5.5 0 0 0 5.6 5.4H15a5.5 5.5 0 0 0 5.7-5.4V5.5A5.5 5.5 0 0 0 15 0zm4 14.8a4 4 0 0 1-4 3.8H5.7a4 4 0 0 1-4-3.8V5.5a4 4 0 0 1 4-4H15a4 4 0 0 1 4 4v9.3zm-4-5.4A4.5 4.5 0 0 0 13.7 7 4.6 4.6 0 0 0 11 5.5a4.7 4.7 0 0 0-1.3 0 4.6 4.6 0 0 0-3 1.8 4.4 4.4 0 0 0-1 3.3 4.5 4.5 0 0 0 2 3 4.7 4.7 0 0 0 2.7 1 4.8 4.8 0 0 0 .7 0 4.6 4.6 0 0 0 3-2 4.4 4.4 0 0 0 1-3.3zM10.8 13a3 3 0 0 1-2.2-.6 3 3 0 0 1-1-2 2.8 2.8 0 0 1 .4-2A3 3 0 0 1 10 7a3 3 0 0 1 .8 0 3 3 0 0 1 0 5.7zm5.4-8.6a.8.8 0 0 0-1.2 0 .8.8 0 0 0 0 1.2.8.8 0 0 0 1.2 0 .8.8 0 0 0 0-1.2z"/></svg>