<svg xmlns="http://www.w3.org/2000/svg" width="22" height="21" viewBox="0 0 22 21">
  <metadata><?xpacket begin="﻿" id="W5M0MpCehiHzreSzNTczkc9d"?>
<x:xmpmeta xmlns:x="adobe:ns:meta/" x:xmptk="Adobe XMP Core 5.6-c138 79.159824, 2016/09/14-01:09:01        ">
   <rdf:RDF xmlns:rdf="http://www.w3.org/1999/02/22-rdf-syntax-ns#">
      <rdf:Description rdf:about=""/>
   </rdf:RDF>
</x:xmpmeta>
                                                                                                    
                                                                                                    
                                                                                                    
                                                                                                    
                                                                                                    
                                                                                                    
                                                                                                    
                                                                                                    
                                                                                                    
                                                                                                    
                                                                                                    
                                                                                                    
                                                                                                    
                                                                                                    
                                                                                                    
                                                                                                    
                                                                                                    
                                                                                                    
                                                                                                    
                                                                                                    
                           
<?xpacket end="w"?></metadata>
<defs>
    <style>
      .cls-1 {
        fill: #fff;
        fill-rule: evenodd;
      }
    </style>
  </defs>
  <path id="Forma_1_копия_2" data-name="Forma 1 копия 2" class="cls-1" d="M753,10471.9v8.1h-4.715v-7.6c0-1.9-.682-3.2-2.389-3.2a2.628,2.628,0,0,0-2.42,1.7,3.609,3.609,0,0,0-.156,1.2v7.9H738.6s0.064-12.8,0-14.2h4.717v2c-0.01.1-.022,0.1-0.031,0.1h0.031v-0.1a4.789,4.789,0,0,1,4.25-2.3C750.673,10465.5,753,10467.5,753,10471.9Zm-19.331-12.9a2.457,2.457,0,1,0-.062,4.9h0.031A2.458,2.458,0,1,0,733.669,10459Zm-2.389,21H736v-14.2H731.28v14.2Z" transform="translate(-731 -10459)"/>
</svg>
