<?xml version="1.0" encoding="UTF-8" standalone="no"?>
<svg
   xmlns:dc="http://purl.org/dc/elements/1.1/"
   xmlns:cc="http://creativecommons.org/ns#"
   xmlns:rdf="http://www.w3.org/1999/02/22-rdf-syntax-ns#"
   xmlns:svg="http://www.w3.org/2000/svg"
   xmlns="http://www.w3.org/2000/svg"
   xmlns:xlink="http://www.w3.org/1999/xlink"
   id="svg5801"
   version="1.1"
   viewBox="0 0 297 210"
   height="210mm"
   width="297mm">
  <defs
     id="defs5795">
    <linearGradient
       gradientTransform="matrix(1.517106,-1.7547383e-8,1.7547382e-8,1.517106,237.20404,-102.12272)"
       gradientUnits="userSpaceOnUse"
       y2="111.24261"
       x2="-6.1398916"
       y1="127.38319"
       x1="-51.379562"
       id="linearGradient7083-6-1-9-3-6-5-80"
       xlink:href="#linearGradient4855" />
    <linearGradient
       x1="43.490662"
       y1="5.2181211"
       x2="100.3884"
       y2="138.6248"
       gradientUnits="userSpaceOnUse"
       gradientTransform="matrix(1,0,0,-1,112.9531,10634.91)"
       spreadMethod="pad"
       id="linearGradient4855">
      <stop
         style="stop-opacity:1;stop-color:#009846"
         offset="0"
         id="stop4851" />
      <stop
         style="stop-opacity:0;stop-color:#ffffff"
         offset="1"
         id="stop4853" />
    </linearGradient>
    <linearGradient
       gradientTransform="matrix(1.517106,-1.7547383e-8,1.7547382e-8,1.517106,235.88585,-98.64588)"
       gradientUnits="userSpaceOnUse"
       y2="111.76882"
       x2="-1.6189768"
       y1="127.38319"
       x1="-51.379562"
       id="linearGradient7083-6-1-9-3-8-2-2-4"
       xlink:href="#linearGradient4885" />
    <linearGradient
       x1="62.83173"
       y1="1.4287961"
       x2="91.12381"
       y2="146.6819"
       gradientUnits="userSpaceOnUse"
       gradientTransform="matrix(1,0,0,-1,98.04795,10622.21)"
       spreadMethod="pad"
       id="linearGradient4885">
      <stop
         style="stop-opacity:1;stop-color:#ef7f1a"
         offset="0"
         id="stop4881" />
      <stop
         style="stop-opacity:0;stop-color:#f8ffff"
         offset="1"
         id="stop4883" />
    </linearGradient>
    <linearGradient
       gradientTransform="matrix(1.517106,-1.7547383e-8,1.7547382e-8,1.517106,233.27592,-101.46027)"
       gradientUnits="userSpaceOnUse"
       y2="113.38784"
       x2="-14.970209"
       y1="127.38319"
       x1="-51.379562"
       id="linearGradient7083-6-2-3-4-4-1-5-2"
       xlink:href="#linearGradient4849" />
    <linearGradient
       x1="134.88271"
       y1="146.14059"
       x2="17.61974"
       y2="1.340541"
       gradientUnits="userSpaceOnUse"
       gradientTransform="matrix(1,0,0,-1,109.1653,10624.68)"
       spreadMethod="pad"
       id="linearGradient4849">
      <stop
         style="stop-opacity:1;stop-color:#a2d9f7"
         offset="0"
         id="stop4845" />
      <stop
         style="stop-opacity:0;stop-color:#ffffff"
         offset="1"
         id="stop4847" />
    </linearGradient>
  </defs>
  <metadata
     id="metadata5798">
    <rdf:RDF>
      <cc:Work
         rdf:about="">
        <dc:format>image/svg+xml</dc:format>
        <dc:type
           rdf:resource="http://purl.org/dc/dcmitype/StillImage" />
        <dc:title></dc:title>
      </cc:Work>
    </rdf:RDF>
  </metadata>
  <g
     transform="translate(0,-87)"
     id="layer1">
    <circle
       cx="176.36304"
       cy="91.793495"
       r="20.500118"
       transform="rotate(41.72738)"
       id="path7075-1-1-7-0-7-5-6-6"
       style="opacity:1;fill:none;fill-opacity:1;stroke:url(#linearGradient7083-6-2-3-4-4-1-5-2);stroke-width:0.91026366;stroke-linecap:round;stroke-linejoin:round;stroke-miterlimit:4;stroke-dasharray:none;stroke-dashoffset:0;stroke-opacity:1;paint-order:normal" />
    <g
       id="text4767-5-9-1-7-0-6-7-7"
       style="font-style:normal;font-variant:normal;font-weight:300;font-stretch:normal;font-size:43.56538773px;line-height:74.25893402px;font-family:Raleway;-inkscape-font-specification:'Raleway, Light';font-variant-ligatures:normal;font-variant-caps:normal;font-variant-numeric:normal;font-feature-settings:normal;text-align:start;letter-spacing:0px;word-spacing:0px;writing-mode:lr-tb;text-anchor:start;fill:#000000;fill-opacity:1;stroke:none;stroke-width:2.97035742px;stroke-linecap:butt;stroke-linejoin:miter;stroke-opacity:1"
       aria-label="hotellab">
      <path
         id="path4499"
         style="font-style:normal;font-variant:normal;font-weight:300;font-stretch:normal;font-size:38.53449249px;font-family:Oxygen;-inkscape-font-specification:'Oxygen, Light';font-variant-ligatures:normal;font-variant-caps:normal;font-variant-numeric:normal;font-feature-settings:normal;text-align:start;writing-mode:lr-tb;text-anchor:start;stroke-width:2.97035742px"
         d="m 109.55851,201.76295 v -28.61863 l 2.33314,-0.20697 v 9.84059 q 0,0.39513 0,0.54566 0,0.15052 -0.0188,0.16934 0,0.0188 -0.0188,0.20697 0,0.18816 -0.0188,0.56447 2.5213,-3.49971 7.22522,-3.49971 6.71719,0 6.71719,8.10955 v 12.88873 h -2.31432 V 189.3258 q 0,-3.4809 -1.0725,-5.02379 -1.07249,-1.5617 -3.78195,-1.5617 -2.69064,0 -4.47813,1.42999 -1.78748,1.41118 -2.20143,3.65024 -0.0376,0.75263 -0.0376,2.23907 v 11.70334 z" />
      <path
         id="path4501"
         style="font-style:normal;font-variant:normal;font-weight:300;font-stretch:normal;font-size:38.53449249px;font-family:Oxygen;-inkscape-font-specification:'Oxygen, Light';font-variant-ligatures:normal;font-variant-caps:normal;font-variant-numeric:normal;font-feature-settings:normal;text-align:start;writing-mode:lr-tb;text-anchor:start;stroke-width:2.97035742px"
         d="m 139.70121,200.35178 q 2.25788,0 3.80077,-1.18539 1.5617,-1.2042 2.25788,-3.16103 0.71499,-1.95683 0.71499,-4.49695 0,-3.98892 -1.69341,-6.41614 -1.69341,-2.42722 -5.15549,-2.42722 -2.25788,0 -3.85722,1.22302 -1.58051,1.2042 -2.31432,3.17985 -0.73381,1.95683 -0.73381,4.49694 0,3.85721 1.78748,6.32207 1.80631,2.46485 5.19313,2.46485 z m -0.16934,1.86275 q -2.80354,0 -4.94852,-1.41117 -2.12617,-1.41118 -3.25511,-3.81959 -1.11013,-2.42722 -1.11013,-5.47536 0,-2.29551 0.63973,-4.25234 0.65855,-1.97564 1.86276,-3.40563 1.2042,-1.44881 2.99169,-2.25788 1.78749,-0.82789 3.9701,-0.82789 2.89762,0 5.02379,1.42999 2.12617,1.41117 3.17985,3.81958 1.07249,2.38959 1.07249,5.45654 0,3.08577 -1.09131,5.49418 -1.09131,2.4084 -3.25511,3.8384 -2.1638,1.41117 -5.08023,1.41117 z" />
      <path
         id="path4503"
         style="font-style:normal;font-variant:normal;font-weight:300;font-stretch:normal;font-size:38.53449249px;font-family:Oxygen;-inkscape-font-specification:'Oxygen, Light';font-variant-ligatures:normal;font-variant-caps:normal;font-variant-numeric:normal;font-feature-settings:normal;text-align:start;writing-mode:lr-tb;text-anchor:start;stroke-width:2.97035742px"
         d="m 159.40122,202.19572 q -2.59657,0 -3.80077,-1.16658 -1.2042,-1.18538 -1.2042,-3.83839 v -14.33754 h -2.91643 l 0.16934,-1.41118 2.78472,-0.26342 0.62092,-4.72273 1.63696,-0.1129 v 4.798 h 6.02101 v 1.71223 h -6.02101 v 13.84833 q 0,2.18262 0.71499,2.93524 0.715,0.73382 2.5213,0.73382 1.16658,0 2.89762,-0.43277 l 0.0941,1.80631 q -2.2767,0.45158 -3.51853,0.45158 z" />
      <path
         id="path4505"
         style="font-style:normal;font-variant:normal;font-weight:300;font-stretch:normal;font-size:38.53449249px;font-family:Oxygen;-inkscape-font-specification:'Oxygen, Light';font-variant-ligatures:normal;font-variant-caps:normal;font-variant-numeric:normal;font-feature-settings:normal;text-align:start;writing-mode:lr-tb;text-anchor:start;stroke-width:2.97035742px"
         d="m 174.66073,202.21453 q -4.27116,0 -6.79246,-2.85998 -2.50249,-2.85998 -2.50249,-7.75206 0,-4.72273 2.44604,-7.73324 2.46485,-3.0105 6.3597,-3.10458 3.63142,0 5.83286,2.59656 2.20143,2.59656 2.20143,6.9618 0,0.16934 -0.0188,0.69618 0,0.50802 0,0.71499 h -14.35635 q 0.0376,3.97011 1.9192,6.30325 1.88156,2.31433 4.96733,2.31433 2.01328,0 3.49972,-0.47039 1.48644,-0.47039 3.10458,-1.33591 l 0.39513,1.74985 q -3.1234,1.9192 -7.05587,1.9192 z m -6.73601,-12.36189 h 11.74097 q 0,-3.44327 -1.48643,-5.26839 -1.48644,-1.84394 -4.083,-1.84394 -2.6342,0 -4.25235,1.95683 -1.61814,1.95683 -1.91919,5.1555 z" />
      <path
         id="path4507"
         style="font-style:normal;font-variant:normal;font-weight:300;font-stretch:normal;font-size:38.53449249px;font-family:Oxygen;-inkscape-font-specification:'Oxygen, Light';font-variant-ligatures:normal;font-variant-caps:normal;font-variant-numeric:normal;font-feature-settings:normal;text-align:start;writing-mode:lr-tb;text-anchor:start;stroke-width:2.97035742px"
         d="m 192.0464,202.19572 q -2.59656,0 -3.80077,-1.16658 -1.2042,-1.18538 -1.2042,-3.83839 V 173.1255 l 2.29551,-0.18815 v 24.12169 q 0,1.88156 0.67737,2.59656 0.69618,0.715 2.08854,0.715 1.12894,0 2.82235,-0.43277 l 0.0941,1.80631 q -1.84394,0.45158 -2.97288,0.45158 z" />
      <path
         id="path4509"
         style="font-style:normal;font-variant:normal;font-weight:300;font-stretch:normal;font-size:38.53449249px;font-family:Oxygen;-inkscape-font-specification:'Oxygen, Light';font-variant-ligatures:normal;font-variant-caps:normal;font-variant-numeric:normal;font-feature-settings:normal;text-align:start;writing-mode:lr-tb;text-anchor:start;stroke-width:2.97035742px"
         d="m 202.95949,202.19572 q -2.59656,0 -3.80076,-1.16658 -1.2042,-1.18538 -1.2042,-3.83839 V 173.1255 l 2.29551,-0.18815 v 24.12169 q 0,1.88156 0.67736,2.59656 0.69618,0.715 2.08854,0.715 1.12894,0 2.82235,-0.43277 l 0.0941,1.80631 q -1.84394,0.45158 -2.97288,0.45158 z" />
      <path
         id="path4511"
         style="font-style:normal;font-variant:normal;font-weight:300;font-stretch:normal;font-size:38.53449249px;font-family:Oxygen;-inkscape-font-specification:'Oxygen, Light';font-variant-ligatures:normal;font-variant-caps:normal;font-variant-numeric:normal;font-feature-settings:normal;text-align:start;writing-mode:lr-tb;text-anchor:start;stroke-width:2.97035742px"
         d="m 214.19245,202.21453 q -2.91643,0 -4.66629,-1.46762 -1.74986,-1.46762 -1.74986,-4.1959 0,-1.61814 0.69618,-2.80353 0.69618,-1.2042 2.01328,-1.93801 1.33591,-0.75263 3.02932,-1.16658 1.71223,-0.41394 3.97011,-0.58328 2.4084,-0.15053 3.57498,-0.24461 v -2.29551 q 0,-2.37077 -1.09131,-3.55616 -1.0725,-1.2042 -3.46209,-1.2042 -3.27392,0 -6.11509,1.5617 -0.0753,-0.18816 -0.3575,-0.80908 -0.26342,-0.63973 -0.37631,-0.97841 1.16657,-0.75263 3.04814,-1.26065 1.88157,-0.50802 3.68787,-0.50802 3.70669,0 5.32483,1.59933 1.61815,1.58052 1.61815,5.62588 v 13.77307 h -1.82512 q -0.0941,-0.43276 -0.28223,-1.71222 -0.16934,-1.27947 -0.16934,-1.3171 -2.42723,3.4809 -6.86772,3.4809 z m 0.0753,-1.86275 q 2.4084,0 4.27116,-1.41118 1.88156,-1.42999 2.46485,-3.95129 v -3.51853 q -2.70946,0.22579 -2.72827,0.22579 -4.59103,0.41395 -6.37852,1.50525 -1.78748,1.09131 -1.78748,3.38683 0,1.88156 1.12894,2.82235 1.14775,0.94078 3.02932,0.94078 z" />
      <path
         id="path4513"
         style="font-style:normal;font-variant:normal;font-weight:300;font-stretch:normal;font-size:38.53449249px;font-family:Oxygen;-inkscape-font-specification:'Oxygen, Light';font-variant-ligatures:normal;font-variant-caps:normal;font-variant-numeric:normal;font-feature-settings:normal;text-align:start;writing-mode:lr-tb;text-anchor:start;stroke-width:2.97035742px"
         d="m 237.80611,202.21453 q -4.19589,0 -6.67956,-3.44327 l -0.24461,2.99169 h -1.95683 v -28.61863 l 2.31433,-0.20697 v 6.94298 q 0,3.17985 -0.0565,4.38405 1.14776,-1.76867 2.91643,-2.63419 1.78749,-0.86552 3.70669,-0.86552 4.17708,0 6.51022,2.99169 2.35196,2.97287 2.35196,7.67679 0,3.16103 -0.97841,5.56944 -0.9596,2.38959 -2.9917,3.80077 -2.03209,1.41117 -4.89207,1.41117 z m 0.11289,-1.86275 q 1.73105,0 2.9917,-0.73381 1.27946,-0.75263 1.95683,-2.03209 0.69618,-1.29829 0.99723,-2.78472 0.31986,-1.50526 0.31986,-3.25511 0,-1.39236 -0.18815,-2.61538 -0.16935,-1.24184 -0.63974,-2.40841 -0.45157,-1.18539 -1.14775,-2.01327 -0.67737,-0.82789 -1.78749,-1.33592 -1.09131,-0.50802 -2.50249,-0.50802 -3.25511,0 -4.98615,2.35196 -1.71222,2.33314 -1.69341,6.64193 0,1.97565 0.3575,3.53735 0.37631,1.54288 1.14775,2.72827 0.79026,1.16657 2.08854,1.8063 1.29829,0.62092 3.08577,0.62092 z" />
    </g>
    <circle
       cx="178.97295"
       cy="94.607986"
       r="20.500118"
       transform="rotate(41.72738)"
       id="path7075-1-6-1-8-9-5-6-55"
       style="opacity:0.98999999;fill:none;fill-opacity:1;stroke:url(#linearGradient7083-6-1-9-3-8-2-2-4);stroke-width:0.91026366;stroke-linecap:round;stroke-linejoin:round;stroke-miterlimit:4;stroke-dasharray:none;stroke-dashoffset:0;stroke-opacity:1;paint-order:normal" />
    <circle
       cx="180.29117"
       cy="91.131058"
       r="20.500118"
       transform="rotate(41.72738)"
       id="path7075-1-6-1-8-7-6-1"
       style="opacity:0.98999999;fill:none;fill-opacity:1;stroke:url(#linearGradient7083-6-1-9-3-6-5-80);stroke-width:0.91026366;stroke-linecap:round;stroke-linejoin:round;stroke-miterlimit:4;stroke-dasharray:none;stroke-dashoffset:0;stroke-opacity:1;paint-order:normal" />
  </g>
</svg>
