<?xml version="1.0" encoding="utf-8"?>
<!-- Generator: Adobe Illustrator 21.0.0, SVG Export Plug-In . SVG Version: 6.00 Build 0)  -->
<svg version="1.1" xmlns="http://www.w3.org/2000/svg" xmlns:xlink="http://www.w3.org/1999/xlink" x="0px" y="0px"
	 viewBox="0 0 1000 1000" style="enable-background:new 0 0 1000 1000;" xml:space="preserve">
<style type="text/css">
	.st0{fill:#27376a;}
	.st1{fill:#40C9F1;}
	.st2{display:none;fill:none;stroke:#53AC63;stroke-miterlimit:10;}
</style>
<g id="Слой_2">
</g>
<g id="Слой_3">
</g>
<g id="Слой_4">
	<path class="st0" d="M248.4,495.7c0.1,2.1-0.8,4.5-2.3,6c-1.9,2-4.3,2.3-4.9,2.4c-2.4,0.3-6.1,1.1-10.2,3.4c-4.1,2.3-6.5,5-7.8,6.5
		c-6.7,7.6-8.6,17.1-9.2,21.1c0,8.2,0,16.4-0.1,24.7c-0.1,4.3-3.6,7.8-7.8,7.9c-4.3,0.1-8.1-3.3-8.3-7.7c0-8.3,0-16.6,0-24.9
		c0-3.9,0.5-9.4,2.6-15.5c1.4-4,3.1-7.3,4.7-9.8c5.3-8.4,11.8-13,13.9-14.4c8-5.3,15.8-6.9,20-7.4
		C243.9,487.4,248.2,491,248.4,495.7z"/>
	<path class="st0" d="M330.6,528.3v31.3c0,4.6-3.3,8-7.9,8c-3.2,0-7.6-3.4-7.6-8c-6.8,5.8-14.5,8-23.5,8
		c-22.4,0-40.2-16.8-40.2-39.3c0-22.5,17.8-40.5,40.2-40.5C313.9,487.8,330.6,505.7,330.6,528.3z M315,528.3
		c0-13.4-10.2-24.8-23.5-24.8c-13.4,0-24.6,11.4-24.6,24.8c0,13.4,11.3,23.7,24.6,23.7C304.8,551.9,315,541.7,315,528.3z"/>
	<path class="st0" d="M401.5,498.5l-23.8,63.8c-1.3,3.2-4.3,5.3-7.5,5.3c-0.2,0-0.2,0-0.2,0c-3.3,0-6.4-2.2-7.5-5.3l-23.8-63.8
		c-1.6-4.1,0.5-8.8,4.6-10.2c4.1-1.6,8.6,0.5,10.2,4.6l16.7,44.5l16.5-44.5c1.6-4.1,6-6.2,10.2-4.6
		C401.1,489.8,403.1,494.4,401.5,498.5z"/>
	<path class="st0" d="M488.3,527.7c0,4.3-3.5,7.8-7.9,7.8h-54.8c3.3,9.5,12.2,16.4,22.9,16.4c3.7,0,10.2-0.3,17.8-5.2
		c3.7-2.4,8.6-0.2,10.5,3.7c1.9,4-0.2,8.1-3.8,10.5c-10.5,7-18.6,6.8-24.5,6.8c-22.1,0-39.9-18-39.9-39.9
		c0-22.1,17.8-39.9,39.9-39.9C467.7,487.8,488.3,501.8,488.3,527.7z M425.5,519.7h45.9c-3.3-11.1-13.5-16.2-23-16.2
		C437.8,503.5,428.9,510.4,425.5,519.7z"/>
	<path class="st0" d="M500.8,559.6V456.2c0-4.3,3.5-7.8,7.9-7.8c4.3,0,7.8,3.5,7.8,7.8v103.5c0,4.5-3.5,7.9-7.8,7.9
		C504.3,567.6,500.8,564.1,500.8,559.6z"/>
	<path class="st0" d="M529.5,512.3c0-31.3,25.6-56,56.1-56c20,0,38,10.3,47.5,27.5c2.9,4.8,1,9.7-2.9,11.4c-3.7,1.9-8.6,1-10.5-2.9
		c-7.5-12.4-20-19.9-34.2-19.9c-21.8,0-39.9,18-39.9,39.7c0,21.9,18.1,39.1,39.9,39.1c13.2,0,25.8-6.7,33.2-18.1
		c2.5-3.2,7.1-4,10.5-1.9c3.5,2.2,4.8,6.8,2.9,10.5c-3,4.6-11.1,15.8-26.2,21.9c-1.3,0.5-10.4,3.9-20.3,3.9
		C555.1,567.6,529.5,542.8,529.5,512.3z"/>
	<path class="st0" d="M717.8,522.8v36.9c0,4.5-3.7,7.9-7.9,7.9s-7.8-3.5-7.8-7.9v-36.9c0-10.7-8.7-19.2-19.4-19.2
		c-10.6,0-19.2,8.6-19.2,19.2v36.9c0,4.5-3.5,7.9-7.9,7.9c-4.3,0-7.8-3.5-7.8-7.9V456.2c0-4.3,3.5-7.8,7.8-7.8
		c4.5,0,7.9,3.5,7.9,7.8v37.4c5.6-3.7,12.1-5.7,19.2-5.7C702.1,487.8,717.8,503.5,717.8,522.8z"/>
	<path class="st0" d="M809.5,528.3v31.3c0,4.6-3.3,8-7.9,8c-3.2,0-7.6-3.4-7.6-8c-6.8,5.8-14.5,8-23.5,8
		c-22.4,0-40.2-16.8-40.2-39.3c0-22.5,17.8-40.5,40.2-40.5S809.5,505.7,809.5,528.3z M793.9,528.3c0-13.4-10.2-24.8-23.5-24.8
		c-13.4,0-24.6,11.4-24.6,24.8c0,13.4,11.3,23.7,24.6,23.7C783.8,551.9,793.9,541.7,793.9,528.3z"/>
	<path class="st0" d="M823.5,559.6v-64.1c0-4.3,3.5-7.8,7.9-7.8c4.3,0,7.8,3.5,7.8,7.8v64.1c0,4.5-3.5,7.9-7.8,7.9
		C827,567.6,823.5,564.1,823.5,559.6z"/>
	<path class="st0" d="M922.3,522.8v36.9c0,4.5-3.7,7.9-7.9,7.9c-4.3,0-7.8-3.5-7.8-7.9v-36.9c0-10.7-8.7-19.2-19.4-19.2
		c-10.6,0-19.2,8.6-19.2,19.2v36.9c0,2.2-0.9,4.2-2.3,5.7c-0.2,0.2-2.5,2.4-5.6,2.3c-3.6-0.2-7-3.4-7.8-7.9
		c0-12.2,0.1-24.4,0.1-36.6c-0.1-2.2-0.2-15.9,10.4-25.9c8.8-8.3,19.3-8.8,23.1-8.9c3.6-0.1,15.6-0.3,25.5,8.9
		C922.1,507.1,922.3,520.5,922.3,522.8z"/>
	<path class="st0" d="M153.5,560c5.4,0.1,10.7,0.1,16.1,0.2c0.1-26.8,0.1-53.6,0.2-80.5c0.4-4,1.9-13.8,9.5-21.5
		c6.1-6.2,12.9-9.8,20.3-9.8c13.4,0,26.8,0,40.2,0c-4-0.5-7.1-3.7-7.3-7.4c-0.3-4.3,3.2-8.3,7.9-8.6c-13.2,0.1-26.5,0.1-39.7,0.2
		c-4.3,0-15.4,0.5-26.4,8c-2.3,1.6-10.3,7.3-15.6,18c-4.3,8.7-5,16.7-5,21C153.6,506.3,153.6,533.1,153.5,560z"/>
	<path class="st0" d="M86.3,432.4c3.4,1.3,5.6,4.6,5.5,8.2c-0.1,3.6-2.5,6.8-6,7.9c2.1,0,4.3,0,6,0c15.4,0,26.9,0.1,30.8,0
		c0.8,0,3.2-0.1,6.3,0.5l0,0l0,0c0,0,1.9,0.4,3.9,1.1c5,1.8,10,6,10,6c4.5,3.7,7.6,7.9,9.7,11.3c0.5-2.4,1.3-5.6,2.9-9
		c1.6-3.4,3.4-5.9,4.9-7.8c-1.9-2.5-3.8-4.4-5.3-5.7c-4.3-4-8.2-6.1-9-6.5c-2.1-1.1-3.9-1.8-5.3-2.4c-4.4-1.7-8-2.4-9.3-2.7
		c-4.1-0.8-7.4-0.8-9.3-0.9C114.6,432.4,102.1,432.3,86.3,432.4z"/>
	<path class="st1" d="M826.5,469.8c-1.4-1.4-2.4-3.5-2.4-5.6c0-2.1,1-4.1,2.4-5.6c1.4-1.4,3.5-2.4,5.6-2.4s4.1,1,5.6,2.4
		c1.4,1.4,2.2,3.5,2.2,5.6c0,2.1-0.8,4.1-2.2,5.6c-1.4,1.4-3.5,2.2-5.6,2.2S827.9,471.3,826.5,469.8z"/>
	<circle class="st1" cx="85.8" cy="440.4" r="8"/>
	<circle class="st1" cx="240.4" cy="440.4" r="8"/>
	<circle class="st1" cx="161.5" cy="559.6" r="8"/>
	<path class="st2" d="M150.5,532.6c5.4,0.1,10.7,0.1,16.1,0.2c0.1-26.8,0.1-53.6,0.2-80.5c0.4-4,1.9-13.8,9.5-21.5
		c6.1-6.2,12.9-9.8,20.3-9.8c13.4,0,26.8,0,40.2,0c-4-0.5-7.1-3.7-7.3-7.4c-0.3-4.3,3.2-8.3,7.9-8.6c-13.2,0.1-26.5,0.1-39.7,0.2
		c-4.3,0-15.4,0.5-26.4,8c-2.3,1.6-10.3,7.3-15.6,18c-4.3,8.7-5,16.7-5,21C150.6,479,150.5,505.8,150.5,532.6z"/>
</g>
</svg>
