<svg xmlns="http://www.w3.org/2000/svg" width="45" height="45" viewBox="0 0 45 45">
  <metadata><?xpacket begin="﻿" id="W5M0MpCehiHzreSzNTczkc9d"?>
<x:xmpmeta xmlns:x="adobe:ns:meta/" x:xmptk="Adobe XMP Core 5.6-c138 79.159824, 2016/09/14-01:09:01        ">
   <rdf:RDF xmlns:rdf="http://www.w3.org/1999/02/22-rdf-syntax-ns#">
      <rdf:Description rdf:about=""/>
   </rdf:RDF>
</x:xmpmeta>
                                                                                                    
                                                                                                    
                                                                                                    
                                                                                                    
                                                                                                    
                                                                                                    
                                                                                                    
                                                                                                    
                                                                                                    
                                                                                                    
                                                                                                    
                                                                                                    
                                                                                                    
                                                                                                    
                                                                                                    
                                                                                                    
                                                                                                    
                                                                                                    
                                                                                                    
                                                                                                    
                           
<?xpacket end="w"?></metadata>
<defs>
    <style>
      .cls-1 {
        fill: #2677f9;
        fill-rule: evenodd;
      }
    </style>
  </defs>
  <path class="cls-1" d="M556.57,898.3a42.439,42.439,0,0,0-12.552-.881c0.018-.23.036-0.441,0.036-0.652a11.7,11.7,0,1,0-23.407,0,9.711,9.711,0,0,0,.348,2.34,31.238,31.238,0,0,1-5.7-.807,2,2,0,0,0-1.623.385,1.86,1.86,0,0,0-.669,1.432v27.066A1.848,1.848,0,0,0,514.43,929c6.95,1.991,17.292.477,21.308,0,6.877-.762,13.469-1.533,19.97,0A1.854,1.854,0,0,0,558,927.182V900.116A1.83,1.83,0,0,0,556.57,898.3Zm-24.178-9.563a8,8,0,0,1,7.931,8.03c0,3.157-4.392,11-7.931,16.548-3.539-5.544-7.931-13.483-7.931-16.548A8,8,0,0,1,532.392,888.736Zm21.886,36.151c-6.4-1.147-12.708-.385-18.916.386-6.4.761-12.515,1.532-18.539,0.385V902.5a40.428,40.428,0,0,0,5.566.468A105.47,105.47,0,0,0,530.87,917.7a1.8,1.8,0,0,0,3.053,0c0.844-1.2,6.693-9.986,9.105-16.474a40.547,40.547,0,0,1,11.25.4v23.257Zm-21.886-31.2a1.882,1.882,0,1,1-1.88,1.882A1.881,1.881,0,0,1,532.392,893.691Z" transform="translate(-513 -885)"/>
</svg>
