<svg xmlns="http://www.w3.org/2000/svg" width="36.312" height="47" viewBox="0 0 36.312 47">
  <metadata><?xpacket begin="﻿" id="W5M0MpCehiHzreSzNTczkc9d"?>
<x:xmpmeta xmlns:x="adobe:ns:meta/" x:xmptk="Adobe XMP Core 5.6-c138 79.159824, 2016/09/14-01:09:01        ">
   <rdf:RDF xmlns:rdf="http://www.w3.org/1999/02/22-rdf-syntax-ns#">
      <rdf:Description rdf:about=""/>
   </rdf:RDF>
</x:xmpmeta>
                                                                                                    
                                                                                                    
                                                                                                    
                                                                                                    
                                                                                                    
                                                                                                    
                                                                                                    
                                                                                                    
                                                                                                    
                                                                                                    
                                                                                                    
                                                                                                    
                                                                                                    
                                                                                                    
                                                                                                    
                                                                                                    
                                                                                                    
                                                                                                    
                                                                                                    
                                                                                                    
                           
<?xpacket end="w"?></metadata>
<defs>
    <style>
      .cls-1 {
        fill: #fff;
        fill-rule: evenodd;
      }
    </style>
  </defs>
  <path id="mobile" class="cls-1" d="M720.4,2517H688.1a2.008,2.008,0,0,0-2,2v43a2.008,2.008,0,0,0,2,2h32.4a1.97,1.97,0,0,0,1.9-1.9V2519A2.017,2.017,0,0,0,720.4,2517Zm-1.9,43.11H690.1V2520.9H718.5v39.21h-0.01Zm-18.2-30.51h7.9a2,2,0,0,0,0-4h-7.9A2,2,0,0,0,700.294,2529.6Zm3.951,23.13a1.97,1.97,0,1,1-1.97,1.97A1.975,1.975,0,0,1,704.245,2552.73Z" transform="translate(-686.094 -2517)"/>
</svg>
