<svg xmlns="http://www.w3.org/2000/svg" width="22" height="23" viewBox="0 0 22 23">
  <metadata><?xpacket begin="﻿" id="W5M0MpCehiHzreSzNTczkc9d"?>
<x:xmpmeta xmlns:x="adobe:ns:meta/" x:xmptk="Adobe XMP Core 5.6-c138 79.159824, 2016/09/14-01:09:01        ">
   <rdf:RDF xmlns:rdf="http://www.w3.org/1999/02/22-rdf-syntax-ns#">
      <rdf:Description rdf:about=""/>
   </rdf:RDF>
</x:xmpmeta>
                                                                                                    
                                                                                                    
                                                                                                    
                                                                                                    
                                                                                                    
                                                                                                    
                                                                                                    
                                                                                                    
                                                                                                    
                                                                                                    
                                                                                                    
                                                                                                    
                                                                                                    
                                                                                                    
                                                                                                    
                                                                                                    
                                                                                                    
                                                                                                    
                                                                                                    
                                                                                                    
                           
<?xpacket end="w"?></metadata>
<defs>
    <style>
      .cls-1 {
        fill: #575ea6;
        fill-rule: evenodd;
      }
    </style>
  </defs>
  <path id="steemit" class="cls-1" d="M1051.52,61a11.045,11.045,0,0,0,.48-5.972c-1-3.885-4.47-8.261-4.62-11.987-0.13-3.181,3.5-5.041,3.5-5.041s-0.63,2.184.96,6.3c0.91,2.365,4.37,7.142,4.46,9.452C1056.52,58.971,1051.52,61,1051.52,61Zm-7.26-2.206a8.539,8.539,0,0,0,.37-4.663c-0.78-3.033-3.51-6.45-3.63-9.36-0.1-2.484,2.76-3.936,2.76-3.936s-0.5,1.705.75,4.92c0.71,1.847,3.43,5.577,3.5,7.38C1048.18,57.21,1044.26,58.795,1044.26,58.795Zm14.98,0a8.6,8.6,0,0,0,.38-4.663c-0.79-3.033-3.51-6.45-3.63-9.36-0.11-2.484,2.75-3.936,2.75-3.936s-0.49,1.705.75,4.92c0.72,1.847,3.44,5.577,3.51,7.38C1063.17,57.21,1059.24,58.795,1059.24,58.795Z" transform="translate(-1041 -38)"/>
</svg>
