<svg xmlns="http://www.w3.org/2000/svg" width="20.718" height="17.125" viewBox="0 0 20.718 17.125">
  <metadata><?xpacket begin="﻿" id="W5M0MpCehiHzreSzNTczkc9d"?>
<x:xmpmeta xmlns:x="adobe:ns:meta/" x:xmptk="Adobe XMP Core 5.6-c138 79.159824, 2016/09/14-01:09:01        ">
   <rdf:RDF xmlns:rdf="http://www.w3.org/1999/02/22-rdf-syntax-ns#">
      <rdf:Description rdf:about=""/>
   </rdf:RDF>
</x:xmpmeta>
                                                                                                    
                                                                                                    
                                                                                                    
                                                                                                    
                                                                                                    
                                                                                                    
                                                                                                    
                                                                                                    
                                                                                                    
                                                                                                    
                                                                                                    
                                                                                                    
                                                                                                    
                                                                                                    
                                                                                                    
                                                                                                    
                                                                                                    
                                                                                                    
                                                                                                    
                                                                                                    
                           
<?xpacket end="w"?></metadata>
<defs>
    <style>
      .cls-1 {
        fill: #575ea6;
        fill-rule: evenodd;
      }
    </style>
  </defs>
  <path id="tel" class="cls-1" d="M876.469,46.527l4.771,1.692,1.847,5.644a0.573,0.573,0,0,0,.892.255l2.66-2.06a0.826,0.826,0,0,1,.967-0.026l4.8,3.31a0.571,0.571,0,0,0,.881-0.323L896.8,38.956a0.553,0.553,0,0,0-.753-0.607l-19.582,7.179A0.526,0.526,0,0,0,876.469,46.527Zm6.32,0.791,9.325-5.458a0.158,0.158,0,0,1,.2.244l-7.7,6.8a1.494,1.494,0,0,0-.5.907l-0.262,1.846a0.244,0.244,0,0,1-.471.032l-1.008-3.367A0.873,0.873,0,0,1,882.789,47.319Z" transform="translate(-876.094 -38.313)"/>
</svg>
