<svg xmlns="http://www.w3.org/2000/svg" width="35.532" height="52" viewBox="0 0 35.532 52">
  <metadata><?xpacket begin="﻿" id="W5M0MpCehiHzreSzNTczkc9d"?>
<x:xmpmeta xmlns:x="adobe:ns:meta/" x:xmptk="Adobe XMP Core 5.6-c138 79.159824, 2016/09/14-01:09:01        ">
   <rdf:RDF xmlns:rdf="http://www.w3.org/1999/02/22-rdf-syntax-ns#">
      <rdf:Description rdf:about=""/>
   </rdf:RDF>
</x:xmpmeta>
                                                                                                    
                                                                                                    
                                                                                                    
                                                                                                    
                                                                                                    
                                                                                                    
                                                                                                    
                                                                                                    
                                                                                                    
                                                                                                    
                                                                                                    
                                                                                                    
                                                                                                    
                                                                                                    
                                                                                                    
                                                                                                    
                                                                                                    
                                                                                                    
                                                                                                    
                                                                                                    
                           
<?xpacket end="w"?></metadata>
<defs>
    <style>
      .cls-1 {
        fill: #fff;
        fill-rule: evenodd;
      }
    </style>
  </defs>
  <path id="TRAV" class="cls-1" d="M621.512,3329.58a5.764,5.764,0,0,0,1.88-4.26v-1.51a5.317,5.317,0,0,0,4.3-5.22,4.329,4.329,0,0,0-4.3-4.33v-6.38a7.376,7.376,0,0,0-7.356-7.38h-9.074a7.376,7.376,0,0,0-7.357,7.38v3.9h-6.427a1.015,1.015,0,0,0,0,2.03h6.427v0.45a4.328,4.328,0,0,0-4.3,4.33,5.317,5.317,0,0,0,4.3,5.22v1.51a5.765,5.765,0,0,0,1.881,4.26,15.19,15.19,0,0,0-5.032,11.27v8.64a1.007,1.007,0,0,0,1.008,1.01,55.387,55.387,0,0,0,13.685,2,62.335,62.335,0,0,0,14.389-2,1.007,1.007,0,0,0,1.008-1.01v-8.64a15.04,15.04,0,0,0-4.406-10.68C621.936,3329.97,621.726,3329.78,621.512,3329.58Zm-2.2,2.12c0,2.33-3.577,4.3-7.81,4.3s-7.81-1.97-7.81-4.3a2.287,2.287,0,0,1,.147-0.8l4.742,1.68a8.782,8.782,0,0,0,5.842,0l4.742-1.68A2.287,2.287,0,0,1,619.309,3331.7Zm-17.688-11.05a3.812,3.812,0,0,0,2.8-3.68v-3.16h14.157v3.16a3.813,3.813,0,0,0,2.8,3.68v4.67a3.754,3.754,0,0,1-2.481,3.53h0l-5.148,1.82a6.683,6.683,0,0,1-4.5,0l-5.148-1.82a3.755,3.755,0,0,1-2.48-3.53v-4.67h0Zm14.138-8.87h-4.87v-1.74a0.808,0.808,0,0,1,.809-0.81h3.252a0.808,0.808,0,0,1,.809.81v1.74h0Zm5.618,6.68a1.81,1.81,0,0,1-.784-1.49v-3.16h0.784v4.65Zm4.3,0.13a3.311,3.311,0,0,1-2.279,3.14v-5.44A2.29,2.29,0,0,1,625.672,3318.59Zm-24.051-10.71a5.36,5.36,0,0,1,5.341-5.36h9.074a5.36,5.36,0,0,1,5.341,5.36v3.9h-3.6v-1.74a2.839,2.839,0,0,0-2.825-2.84H611.7a2.839,2.839,0,0,0-2.825,2.84v1.74h-7.252v-3.9Zm0.784,5.93v3.16a1.81,1.81,0,0,1-.784,1.49v-4.65h0.784Zm-5.08,4.78a2.291,2.291,0,0,1,2.28-2.3v5.44A3.312,3.312,0,0,1,597.325,3318.59Zm27.2,29.89a43.439,43.439,0,0,1-26.058,0v-7.63a13.141,13.141,0,0,1,3.239-8.62c0.407,3.29,4.559,5.79,9.79,5.79s9.388-2.51,9.791-5.8a13.016,13.016,0,0,1,3.238,8.63v7.63Z" transform="translate(-592.156 -3300.5)"/>
</svg>
