<svg xmlns="http://www.w3.org/2000/svg" width="35.5" height="52" viewBox="0 0 35.532 52"><defs><style>.cls-1 { fill: #0e1359; fill-rule: evenodd; }</style></defs><path id="TRAV" class="cls-1" d="M29.4 29a5.8 5.8 0 0 0 1.8-4.2v-1.5a5.3 5.3 0 0 0 4.3-5.2 4.3 4.3 0 0 0-4.3-4.2V7.4A7.4 7.4 0 0 0 24 0h-9.2a7.4 7.4 0 0 0-7.4 7.4v4H1a1 1 0 0 0 0 2h6.4v.4A4.3 4.3 0 0 0 3 18a5.3 5.3 0 0 0 4.4 5.3v1.5a5.8 5.8 0 0 0 2 4.3 15.2 15.2 0 0 0-5 11.3V49a1 1 0 0 0 1 1A55.4 55.4 0 0 0 19 52a62.3 62.3 0 0 0 14.4-2 1 1 0 0 0 1-1v-8.7A15 15 0 0 0 30 29.7l-.6-.6zm-2.2 2.2c0 2.3-3.6 4.3-8 4.3s-7.7-2-7.7-4.3a2.3 2.3 0 0 1 .2-.8l4.7 1.7a8.8 8.8 0 0 0 6 0l4.6-1.6a2.3 2.3 0 0 1 .2.8zm-17.7-11a3.8 3.8 0 0 0 2.8-3.7v-3.2h14v3.2a3.8 3.8 0 0 0 3 3.6V25a3.8 3.8 0 0 1-2.6 3.5l-5 2a6.7 6.7 0 0 1-4.6 0l-5-2a3.8 3.8 0 0 1-2.5-3.5V20zm14-9h-4.8V9.6a.8.8 0 0 1 .8-.8h3.3a.8.8 0 0 1 .8.8v1.8zm5.7 6.8a1.8 1.8 0 0 1-.8-1.5v-3.2h.8V18zm4.3 0a3.3 3.3 0 0 1-2.3 3.2v-5.4a2.3 2.3 0 0 1 2.3 2.3zM9.5 7.5A5.4 5.4 0 0 1 14.8 2h9a5.4 5.4 0 0 1 5.4 5.4v4h-3.6v-2a2.8 2.8 0 0 0-2.8-2.7h-3.3a2.8 2.8 0 0 0-2.8 2.8v1.8H9.5v-4zm.8 6v3a1.8 1.8 0 0 1-.8 1.6v-4.7h.8zm-5 4.7A2.3 2.3 0 0 1 7.4 16v5.4a3.3 3.3 0 0 1-2.3-3zm27 30a43.4 43.4 0 0 1-26 0v-7.7a13 13 0 0 1 3.3-8.6c.4 3.3 4.5 5.8 9.7 5.8s9.4-2.5 9.8-5.8a13 13 0 0 1 3.4 8.6V48z"/></svg>