<svg xmlns="http://www.w3.org/2000/svg" width="19.094" height="14.75" viewBox="0 0 19.094 14.75">
  <metadata><?xpacket begin="﻿" id="W5M0MpCehiHzreSzNTczkc9d"?>
<x:xmpmeta xmlns:x="adobe:ns:meta/" x:xmptk="Adobe XMP Core 5.6-c138 79.159824, 2016/09/14-01:09:01        ">
   <rdf:RDF xmlns:rdf="http://www.w3.org/1999/02/22-rdf-syntax-ns#">
      <rdf:Description rdf:about=""/>
   </rdf:RDF>
</x:xmpmeta>
                                                                                                    
                                                                                                    
                                                                                                    
                                                                                                    
                                                                                                    
                                                                                                    
                                                                                                    
                                                                                                    
                                                                                                    
                                                                                                    
                                                                                                    
                                                                                                    
                                                                                                    
                                                                                                    
                                                                                                    
                                                                                                    
                                                                                                    
                                                                                                    
                                                                                                    
                                                                                                    
                           
<?xpacket end="w"?></metadata>
<defs>
    <style>
      .cls-1 {
        fill: #575ea6;
        fill-rule: evenodd;
      }
    </style>
  </defs>
  <path id="tw" class="cls-1" d="M841.41,39.384a8.11,8.11,0,0,1-2.487.906,3.993,3.993,0,0,0-2.857-1.179,3.826,3.826,0,0,0-3.914,3.731,3.611,3.611,0,0,0,.1.85,11.3,11.3,0,0,1-8.068-3.9,3.575,3.575,0,0,0-.529,1.875,3.688,3.688,0,0,0,1.741,3.105,4.057,4.057,0,0,1-1.773-.468v0.047a3.785,3.785,0,0,0,3.139,3.66,4.092,4.092,0,0,1-1.768.063,3.9,3.9,0,0,0,3.656,2.592,8.1,8.1,0,0,1-4.861,1.6,8.636,8.636,0,0,1-.934-0.051,11.483,11.483,0,0,0,6,1.676,10.794,10.794,0,0,0,11.137-10.617l-0.013-.483a7.688,7.688,0,0,0,1.956-1.929,8.124,8.124,0,0,1-2.247.588A3.789,3.789,0,0,0,841.41,39.384Z" transform="translate(-822.844 -39.125)"/>
</svg>
