<svg xmlns="http://www.w3.org/2000/svg" width="19.1" height="14.8" viewBox="0 0 19.094 14.75"><defs><style>.cls-1 { fill: #575ea6; fill-rule: evenodd; }</style></defs><path id="tw" class="cls-1" d="M18.6.3a8 8 0 0 1-2.5 1A4 4 0 0 0 13.3 0a3.8 3.8 0 0 0-4 3.7 3.6 3.6 0 0 0 .2 1 11.3 11.3 0 0 1-8-4 3.6 3.6 0 0 0-.6 1.8 3.7 3.7 0 0 0 1.8 3 4 4 0 0 1-1.8-.3 3.8 3.8 0 0 0 3 3.7 4 4 0 0 1-1.7 0A4 4 0 0 0 6 11.4a8 8 0 0 1-5 1.6 8.6 8.6 0 0 1-.8 0A11.5 11.5 0 0 0 6 15 10.8 10.8 0 0 0 17 4v-.3a7.7 7.7 0 0 0 2-2 8 8 0 0 1-2.2.6 3.8 3.8 0 0 0 1.8-2z"/></svg>