<svg xmlns="http://www.w3.org/2000/svg" width="27" height="16" viewBox="0 0 27 16">
  <metadata><?xpacket begin="﻿" id="W5M0MpCehiHzreSzNTczkc9d"?>
<x:xmpmeta xmlns:x="adobe:ns:meta/" x:xmptk="Adobe XMP Core 5.6-c138 79.159824, 2016/09/14-01:09:01        ">
   <rdf:RDF xmlns:rdf="http://www.w3.org/1999/02/22-rdf-syntax-ns#">
      <rdf:Description rdf:about=""/>
   </rdf:RDF>
</x:xmpmeta>
                                                                                                    
                                                                                                    
                                                                                                    
                                                                                                    
                                                                                                    
                                                                                                    
                                                                                                    
                                                                                                    
                                                                                                    
                                                                                                    
                                                                                                    
                                                                                                    
                                                                                                    
                                                                                                    
                                                                                                    
                                                                                                    
                                                                                                    
                                                                                                    
                                                                                                    
                                                                                                    
                           
<?xpacket end="w"?></metadata>
<defs>
    <style>
      .cls-1 {
        fill: #575ea6;
        fill-rule: evenodd;
      }
    </style>
  </defs>
  <path id="vk" class="cls-1" d="M1112.86,56.452c-0.04-.073-0.07-0.134-0.1-0.182a14.159,14.159,0,0,0-2.68-3.228l-0.03-.029L1110.04,53l-0.02-.015h-0.01q-0.9-.891-1.14-1.2a1.16,1.16,0,0,1-.2-1.183,11.792,11.792,0,0,1,1.27-1.913c0.38-.516.69-0.93,0.91-1.241,1.62-2.24,2.33-3.671,2.11-4.294l-0.08-.146a0.823,0.823,0,0,0-.44-0.241,2.123,2.123,0,0,0-.9-0.036l-4.05.029a0.5,0.5,0,0,0-.28.007l-0.18.044-0.07.036-0.06.044a0.641,0.641,0,0,0-.15.153,0.972,0.972,0,0,0-.14.256,23.308,23.308,0,0,1-1.51,3.286c-0.34.6-.66,1.127-0.95,1.57a8.139,8.139,0,0,1-.73.979,5.446,5.446,0,0,1-.54.5,0.5,0.5,0,0,1-.36.161q-0.135-.029-0.24-0.058a0.983,0.983,0,0,1-.32-0.358,1.69,1.69,0,0,1-.16-0.57c-0.03-.229-0.04-0.426-0.05-0.592s0-.4.01-0.7,0.01-.506.01-0.614c0-.37.01-0.772,0.02-1.2s0.03-.777.04-1.03,0.01-.521.01-0.8a2.977,2.977,0,0,0-.05-0.665,2.527,2.527,0,0,0-.14-0.467,0.857,0.857,0,0,0-.29-0.351,1.714,1.714,0,0,0-.47-0.2,9.049,9.049,0,0,0-1.9-.19,8.922,8.922,0,0,0-3.36.351,1.858,1.858,0,0,0-.53.438c-0.17.214-.2,0.331-0.07,0.35a1.688,1.688,0,0,1,1.19.628l0.08,0.175a2.432,2.432,0,0,1,.2.672,6.643,6.643,0,0,1,.13,1.066,13.805,13.805,0,0,1,0,1.826c-0.05.506-.09,0.9-0.14,1.183a2.2,2.2,0,0,1-.19.686c-0.08.175-.14,0.282-0.16,0.321a0.549,0.549,0,0,1-.07.073,1.057,1.057,0,0,1-.38.073,0.861,0.861,0,0,1-.48-0.2,3.269,3.269,0,0,1-.58-0.562,7.306,7.306,0,0,1-.69-1q-0.375-.643-0.78-1.519l-0.23-.424q-0.21-.409-0.57-1.19c-0.25-.521-0.46-1.025-0.65-1.512a1,1,0,0,0-.34-0.467l-0.07-.044a1.041,1.041,0,0,0-.22-0.124,1.5,1.5,0,0,0-.33-0.095l-3.85.029a0.959,0.959,0,0,0-.8.278l-0.06.088a0.62,0.62,0,0,0-.04.234,1.139,1.139,0,0,0,.09.394q0.84,2.06,1.83,3.973c0.66,1.275,1.23,2.3,1.72,3.082s0.99,1.514,1.49,2.206,0.84,1.134,1.01,1.329,0.29,0.341.38,0.438l0.36,0.351a7.689,7.689,0,0,0,.99.84,15.731,15.731,0,0,0,1.44.964,7.76,7.76,0,0,0,1.85.774,6.178,6.178,0,0,0,2.05.241h1.62a1.11,1.11,0,0,0,.75-0.321l0.05-.073a1.161,1.161,0,0,0,.11-0.27,1.671,1.671,0,0,0,.05-0.4,4.984,4.984,0,0,1,.09-1.132,3.016,3.016,0,0,1,.24-0.759,1.942,1.942,0,0,1,.3-0.431,1.08,1.08,0,0,1,.24-0.212,0.529,0.529,0,0,1,.11-0.051,0.854,0.854,0,0,1,.79.226,4.382,4.382,0,0,1,.86.847q0.4,0.5.96,1.132a7.031,7.031,0,0,0,.99.935l0.28,0.175a3.387,3.387,0,0,0,.73.321,1.525,1.525,0,0,0,.79.073l3.6-.058a1.606,1.606,0,0,0,.83-0.183,0.748,0.748,0,0,0,.35-0.4,1.184,1.184,0,0,0,0-.5A2,2,0,0,0,1112.86,56.452Z" transform="translate(-1086 -42)"/>
</svg>
