<svg xmlns="http://www.w3.org/2000/svg" width="21.469" height="14.75" viewBox="0 0 21.469 14.75">
  <metadata><?xpacket begin="﻿" id="W5M0MpCehiHzreSzNTczkc9d"?>
<x:xmpmeta xmlns:x="adobe:ns:meta/" x:xmptk="Adobe XMP Core 5.6-c138 79.159824, 2016/09/14-01:09:01        ">
   <rdf:RDF xmlns:rdf="http://www.w3.org/1999/02/22-rdf-syntax-ns#">
      <rdf:Description rdf:about=""/>
   </rdf:RDF>
</x:xmpmeta>
                                                                                                    
                                                                                                    
                                                                                                    
                                                                                                    
                                                                                                    
                                                                                                    
                                                                                                    
                                                                                                    
                                                                                                    
                                                                                                    
                                                                                                    
                                                                                                    
                                                                                                    
                                                                                                    
                                                                                                    
                                                                                                    
                                                                                                    
                                                                                                    
                                                                                                    
                                                                                                    
                           
<?xpacket end="w"?></metadata>
<defs>
    <style>
      .cls-1 {
        fill: #575ea6;
        fill-rule: evenodd;
      }
    </style>
  </defs>
  <path id="you" class="cls-1" d="M788.629,40.38c-0.775-.9-2.206-1.269-4.938-1.269h-9.917c-2.795,0-4.249.391-5.021,1.35C768,41.4,768,42.775,768,44.682v3.635c0,3.7.893,5.571,5.774,5.571h9.917c2.37,0,3.682-.324,4.532-1.12,0.871-.815,1.242-2.147,1.242-4.452V44.682C789.465,42.671,789.407,41.285,788.629,40.38ZM781.781,47l-4.5,2.3a0.7,0.7,0,0,1-.679-0.021,0.675,0.675,0,0,1-.334-0.579v-4.59a0.674,0.674,0,0,1,.333-0.579,0.707,0.707,0,0,1,.679-0.022l4.5,2.288A0.67,0.67,0,0,1,781.781,47Z" transform="translate(-768 -39.125)"/>
</svg>
