<svg xmlns="http://www.w3.org/2000/svg" width="21.469" height="14.8" viewBox="0 0 21.469 14.8">
  <metadata><?xpacket begin="﻿" id="W5M0MpCehiHzreSzNTczkc9d"?>
<x:xmpmeta xmlns:x="adobe:ns:meta/" x:xmptk="Adobe XMP Core 5.6-c138 79.159824, 2016/09/14-01:09:01        ">
   <rdf:RDF xmlns:rdf="http://www.w3.org/1999/02/22-rdf-syntax-ns#">
      <rdf:Description rdf:about=""/>
   </rdf:RDF>
</x:xmpmeta>
                                                                                                    
                                                                                                    
                                                                                                    
                                                                                                    
                                                                                                    
                                                                                                    
                                                                                                    
                                                                                                    
                                                                                                    
                                                                                                    
                                                                                                    
                                                                                                    
                                                                                                    
                                                                                                    
                                                                                                    
                                                                                                    
                                                                                                    
                                                                                                    
                                                                                                    
                                                                                                    
                           
<?xpacket end="w"?></metadata>
<defs>
    <style>
      .cls-1 {
        fill: #fff;
        fill-rule: evenodd;
      }
    </style>
  </defs>
  <path id="you_копия" data-name="you копия" class="cls-1" d="M530.629,10465.4c-0.775-.9-2.206-1.3-4.938-1.3h-9.917c-2.795,0-4.249.4-5.021,1.4-0.753.9-.753,2.3-0.753,4.2v3.6c0,3.7.893,5.6,5.774,5.6h9.917c2.37,0,3.682-.3,4.532-1.1,0.871-.8,1.242-2.2,1.242-4.5v-3.6C531.465,10467.7,531.407,10466.3,530.629,10465.4Zm-6.848,6.6-4.5,2.3a0.4,0.4,0,0,1-.32.1c-0.125,0-.249-0.1-0.359-0.1a0.728,0.728,0,0,1-.334-0.6v-4.6a0.892,0.892,0,0,1,.333-0.6,0.806,0.806,0,0,1,.679,0l4.5,2.3A0.669,0.669,0,0,1,523.781,10472Z" transform="translate(-510 -10464.1)"/>
</svg>
